<svg xmlns="http://www.w3.org/2000/svg" viewBox="0 0 486.392 486.392"><path d="M243.196 0C108.891 0 0 108.891 0 243.196s108.891 243.196 243.196 243.196 243.196-108.891 243.196-243.196C486.392 108.861 377.501 0 243.196 0zm-60.799 360.994h-60.799V148.197h60.799v212.797zm-28.515-225.838c-15.747 0-28.484-12.768-28.484-28.515s12.768-28.515 28.484-28.515c15.747.03 28.515 12.798 28.515 28.515 0 15.747-12.768 28.515-28.515 28.515zm241.311 225.838h-60.799V229.425c0-15.413-4.408-26.204-23.347-26.204-31.403 0-37.452 26.204-37.452 26.204v131.569h-60.799V148.197h60.799v20.337c8.694-6.657 30.399-20.307 60.799-20.307 19.699 0 60.799 11.795 60.799 83.051v129.716z" fill="#010002"/></svg>