<svg xmlns="http://www.w3.org/2000/svg" viewBox="0 0 486.392 486.392"><path d="M463.258 274.522c1.368-9.88 2.128-19.942 2.128-30.156 0-122.692-100.045-222.19-223.406-222.19a222.275 222.275 0 0 0-35.963 2.918C185.041 11.414 160.083 3.48 133.241 3.48 59.613 3.481 0 63.185 0 136.782c0 26.782 7.873 51.679 21.462 72.564a221.897 221.897 0 0 0-2.766 35.02c0 122.723 99.953 222.19 223.315 222.19 13.923 0 27.481-1.368 40.644-3.739 20.459 12.707 44.626 20.094 70.436 20.094 73.658 0 133.302-59.674 133.302-133.302.029-27.815-8.453-53.716-23.135-75.087zM262.925 408.098c-70.983 3.709-104.179-12.038-134.609-40.553-33.987-31.889-20.337-68.247 7.357-70.101 27.664-1.854 44.262 31.342 59.036 40.583 14.744 9.211 70.861 30.187 100.501-3.709 32.284-36.875-21.462-55.965-60.86-61.741-56.239-8.299-127.252-38.729-121.719-98.707 5.533-59.887 50.889-90.651 98.646-94.968 60.86-5.533 100.501 9.211 131.842 35.963 36.236 30.916 16.629 65.45-6.445 68.216-23.043 2.766-48.822-50.828-99.558-51.618-52.287-.821-87.611 54.415-23.073 70.101 64.568 15.686 133.666 22.131 158.624 81.136 24.928 59.005-38.729 121.689-109.742 125.398z" fill="#090509"/></svg>